<svg width="106" height="29" viewBox="0 0 106 29" fill="none" xmlns="http://www.w3.org/2000/svg">
<path d="M13.418 0.0212329C21.2431 -0.403659 27.9303 5.59955 28.3526 13.4283C28.7749 21.2571 22.7722 27.9454 14.9469 28.3654C7.12488 28.7853 0.443081 22.7832 0.0209815 14.9579C-0.401113 7.13256 5.59625 0.445941 13.418 0.0212329Z" fill="#4480F8"/>
<path d="M12.3382 5.35623L18.1503 5.35457C18.9914 5.35448 20.5498 5.31136 21.3366 5.39429C20.8015 6.47067 17.0667 10.8292 16.9447 11.4284C17.2148 11.7873 21.1081 11.3715 21.7843 11.6404L21.8091 11.7048C21.7298 12.0146 19.5417 14.05 19.1861 14.3996L13.6055 19.8902C13.0629 20.4353 9.01137 24.4901 8.61545 24.6826L8.53307 24.6297C8.43873 24.3724 8.86812 22.9262 8.9539 22.5689L9.95125 18.422C10.0915 17.8479 10.3631 16.8653 10.4282 16.3055C9.75742 16.2805 6.83443 16.3604 6.42886 16.2233L6.38939 16.1322C6.43609 15.6864 11.7705 6.3831 12.3382 5.35623Z" fill="white"/>
<path d="M70.0536 4.60084C70.2092 4.58736 70.3653 4.58026 70.5215 4.5794C71.5505 4.5832 72.6468 4.80893 73.4019 5.55751C74.4321 6.57832 74.2269 8.24839 74.2239 9.58342L74.2104 13.2842L72.12 13.2812C72.1164 12.8835 72.1317 12.473 72.1421 12.0743C71.9026 12.3924 71.6301 12.7212 71.2951 12.9362C69.7921 13.9004 67.608 13.6696 66.5913 12.1467C66.2827 11.3896 66.1326 10.2334 66.6777 9.54745C67.6785 8.28816 69.5655 8.38019 71.0048 8.14809C71.2546 8.11727 71.9198 7.9639 72.0178 7.70888C72.4649 6.54591 70.7524 5.89721 69.8466 6.21031C69.062 6.48163 68.9493 6.63997 68.5941 7.21802C68.1317 7.12396 67.0856 7.05087 66.576 7.00185C67.1713 5.39268 68.3773 4.71457 70.0536 4.60084Z" fill="#4480F8"/>
<path d="M71.9652 9.26121L72.0191 9.32242C72.065 9.82762 72.1103 10.3719 71.8941 10.8415C71.3123 12.1042 69.9379 12.2121 68.8043 11.7298C68.7057 11.6537 68.5764 11.5508 68.5293 11.4373C68.0307 10.2339 68.9653 9.81322 69.9459 9.65948C70.5896 9.55863 71.3968 9.46169 71.9652 9.26121Z" fill="white"/>
<path d="M96.8122 4.7288C97.5575 4.71464 98.3029 4.71041 99.0483 4.71605C99.7306 6.867 100.453 9.2302 101.205 11.3435C101.929 9.14092 102.639 6.93403 103.336 4.7231C104.091 4.70288 104.864 4.71924 105.621 4.72751C104.945 6.65861 104.114 8.7348 103.382 10.6658C102.976 11.7572 102.57 12.8483 102.159 13.9384C101.847 14.7669 101.481 15.5557 100.706 16.0494C99.6313 16.7341 98.6147 16.6119 97.4442 16.3589C97.59 15.799 97.7223 15.3421 97.9048 14.7931C99.3074 15.0106 99.5836 14.7723 100.098 13.4859C99.3257 11.7295 98.671 9.63423 97.9391 7.83028C97.7437 7.34848 96.863 5.04852 96.8122 4.7288Z" fill="#4480F8"/>
<path d="M45.5224 4.59625C47.0682 4.36292 48.5867 5.31885 48.8886 6.87379C49.057 7.74252 49.0013 8.65421 48.9995 9.53759L48.9891 13.2837L46.8669 13.2828L46.877 9.84482C46.8791 8.57584 47.1313 6.43415 45.3069 6.32416C44.5486 6.27845 44.1259 6.404 43.5588 6.91441C42.9628 7.8019 43.1031 9.1735 43.1077 10.2199L43.1123 13.2875L41.0066 13.2835L40.9968 4.71996C41.6617 4.70728 42.3545 4.71788 43.0218 4.71886L43.0145 6.31338C43.6938 5.24232 44.1898 4.7177 45.5224 4.59625Z" fill="#4480F8"/>
<path d="M80.8206 4.59286C80.9688 4.58337 81.1171 4.57816 81.2653 4.5773C82.0774 4.57791 82.8981 4.80891 83.4805 5.39941C83.8584 5.7888 84.1218 6.27433 84.2431 6.80325C84.3999 7.46794 84.3447 8.74359 84.3435 9.48065L84.3386 13.2878L82.2409 13.2835L82.2538 9.83561C82.2569 8.67344 82.4975 6.5247 80.8188 6.3375C80.0967 6.25705 79.6214 6.35233 79.0457 6.81421C78.1221 7.91328 78.4639 11.7969 78.4657 13.2838L76.3619 13.2828L76.3564 4.71658L78.38 4.71602C78.3689 5.2238 78.3855 5.80204 78.3898 6.31496C79.0396 5.26687 79.5504 4.73477 80.8206 4.59286Z" fill="#4480F8"/>
<path d="M54.3008 4.60062C56.2497 4.34493 57.8145 5.11005 58.4374 7.00089C57.7379 7.06829 57.1488 7.12233 56.4475 7.13502C56.3703 6.97436 56.2497 6.75641 56.1284 6.62283C55.4516 5.87958 53.1635 5.80164 53.2174 7.17564C53.2633 7.92502 54.4741 8.0896 55.0523 8.20835C56.5179 8.49841 58.5795 8.80423 58.6132 10.7173C58.6444 12.536 56.5835 13.4436 55.0456 13.477C53.1353 13.498 51.2771 13.1272 50.7871 11.0012C51.4627 10.9117 52.14 10.8348 52.818 10.7706C53.466 12.1052 55.0278 12.3492 56.2117 11.4275C56.6153 11.1129 56.3085 10.3688 55.8724 10.1735C54.9163 9.66053 52.4855 9.73161 51.7554 8.8478C49.7753 6.45065 52.1309 4.74057 54.3008 4.60062Z" fill="#4480F8"/>
<path d="M87.1457 2.60315H89.334L89.3328 4.71348L91.0869 4.7136L91.0838 6.24335L89.3328 6.25364L89.3212 9.18172C89.3175 10.6543 88.9543 12.0232 90.9307 11.6725C91.0189 12.1258 91.1396 12.6203 91.2382 13.0757C91.2541 13.1481 91.2357 13.1596 91.2094 13.2418C90.8235 13.4084 90.4254 13.4362 90.0322 13.4345C87.33 13.422 87.0409 11.8971 87.1396 9.60169C87.1837 8.57658 87.1488 7.26178 87.1537 6.24697L85.8865 6.2504L85.8816 4.71672L87.1494 4.71053L87.1457 2.60315Z" fill="#4480F8"/>
<path d="M60.9805 2.60334L63.1493 2.60267L63.148 4.71514L64.9689 4.71808L64.9554 6.24029L63.1468 6.25255C63.1419 7.88249 63.0825 9.56622 63.2062 11.1847C63.2558 11.8338 64.2756 11.7685 64.7245 11.6622C64.8519 12.116 64.9383 12.4975 65.0344 12.9556L65.0663 13.1535L64.9732 13.256C64.5855 13.4174 64.2872 13.4414 63.8885 13.438C61.1637 13.4145 60.885 11.9632 60.9781 9.63718C61.0173 8.64332 60.9873 7.28096 60.9934 6.24759L59.6956 6.25096L59.6938 4.71722L60.9867 4.71115L60.9805 2.60334Z" fill="#4480F8"/>
<path d="M36.4645 1.82608L38.6875 1.82498C38.628 5.59005 38.6833 9.50996 38.6804 13.2881L36.4769 13.2826L36.4645 1.82608Z" fill="#4480F8"/>
<path d="M93.1093 1.82627L95.2529 1.82657L95.2517 13.2834L93.1191 13.2823L93.1093 1.82627Z" fill="#4480F8"/>
<path d="M85.2303 22.1868C85.4465 22.1802 85.6933 22.1468 85.8752 22.2527C86.0296 22.446 85.9842 22.3884 86.0124 22.6648C86.2378 22.6669 86.6873 22.2979 87.0052 22.2191C88.1487 21.9354 89.2315 22.66 89.5378 23.7715C89.7031 24.3722 89.6211 25.0142 89.3105 25.5541C88.9467 26.1849 88.5192 26.4099 87.8504 26.5911C86.955 26.6687 86.6721 26.5113 85.9818 25.9966L85.9836 28.324L85.2156 28.3272C85.2156 26.2981 85.1868 24.2107 85.2303 22.1868Z" fill="#7E7E7E"/>
<path d="M87.1407 22.8232C87.4702 22.8181 87.6932 22.8031 87.9976 22.9556C88.3816 23.149 88.6725 23.4882 88.8048 23.8975C88.9414 24.3133 88.9071 24.7664 88.7092 25.1569C88.4624 25.6345 88.1654 25.7999 87.6913 25.9505C87.3747 25.9559 87.0936 25.9672 86.8051 25.8259C86.4284 25.6427 86.1436 25.3119 86.0187 24.9119C85.721 23.976 86.2049 23.099 87.1407 22.8232Z" fill="white"/>
<path d="M70.7828 19.9532C70.969 19.9505 71.2519 19.918 71.394 20.0179C71.4651 20.4421 71.432 21.7224 71.4326 22.2227L71.4357 26.5792C71.2403 26.5882 70.9653 26.6333 70.8226 26.5203C70.7283 26.3722 70.765 26.1091 70.7718 25.9229C69.9149 26.6821 69.082 26.8594 68.0555 26.2908C66.9274 25.5025 66.7908 23.8617 67.6862 22.8518C68.0482 22.4393 68.562 22.1912 69.1096 22.1639C69.828 22.1267 70.2653 22.401 70.7736 22.8593C70.765 21.8906 70.7681 20.9218 70.7828 19.9532Z" fill="#7E7E7E"/>
<path d="M69.001 22.8297C69.2993 22.8212 69.5418 22.7981 69.8199 22.9194C70.2063 23.0893 70.5095 23.4074 70.6595 23.8025C71.0282 24.7548 70.5579 25.5936 69.6349 25.935C67.5182 26.142 67.1857 23.4215 69.001 22.8297Z" fill="white"/>
<path d="M75.4452 20.196C76.5482 20.1898 78.1804 20.1355 79.2369 20.2102L79.3018 20.3044C79.3055 20.4918 79.3306 20.7187 79.2461 20.8791C78.9111 20.9485 76.7773 20.9171 76.2426 20.9185L76.2457 23.0398C76.7969 23.0424 78.2723 23.0041 78.7053 23.0813C78.788 23.2449 78.7574 23.5923 78.7537 23.791C78.2686 23.7877 76.7191 23.745 76.3038 23.8241C76.2138 23.9406 76.2365 24.1714 76.2365 24.3272L76.2457 25.8426L79.5309 25.846L79.5242 26.5853L75.436 26.5875L75.4452 20.196Z" fill="#7E7E7E"/>
<path d="M91.9892 22.2121C92.0645 22.2014 92.1404 22.1934 92.2158 22.1881C93.9601 22.065 94.4727 23.1063 94.5756 24.6116C93.5534 24.6737 92.1956 24.6286 91.1287 24.652C91.5457 25.786 92.2935 26.3205 93.4566 25.7368C93.5987 25.586 93.6416 25.5244 93.837 25.4601C94.0581 25.4835 93.987 25.4475 94.1554 25.5833C94.202 25.7626 94.2161 25.7944 94.1316 25.9854C94.0189 26.205 93.7518 26.3917 93.5258 26.4665C92.3119 26.8686 91.0331 26.469 90.567 25.216C90.3459 24.6185 90.3723 23.9572 90.6411 23.3796C90.9351 22.7433 91.354 22.4446 91.9892 22.2121Z" fill="#7E7E7E"/>
<path d="M92.3367 22.8249C93.3215 22.8104 93.5022 23.156 93.8776 23.9946L92.5241 23.9996L91.1718 23.9891C91.3953 23.3622 91.6654 22.9813 92.3367 22.8249Z" fill="white"/>
<path d="M44.8801 22.2156C45.0654 22.1909 45.2521 22.1778 45.4391 22.1765C46.9759 22.1525 47.4556 23.3 47.4621 24.6193C46.3622 24.652 45.1666 24.637 44.0605 24.6411C44.4013 25.7952 45.1942 26.2678 46.3174 25.7645L46.3559 25.7382C46.6057 25.5696 46.9164 25.2979 47.1539 25.6733C47.1826 26.6409 45.3873 26.7383 44.689 26.4622C44.178 26.2611 43.7687 25.8638 43.5522 25.359C42.9956 24.0454 43.5851 22.7599 44.8801 22.2156Z" fill="#7E7E7E"/>
<path d="M45.1419 22.8388C45.8209 22.8082 46.8079 23.0915 46.6796 23.9519C46.5094 24.0346 45.9533 24.003 45.7322 24.0005L44.0631 23.9871C44.3358 23.3814 44.4855 23.0894 45.1419 22.8388Z" fill="white"/>
<path d="M63.6786 22.223C63.7398 22.213 63.8017 22.205 63.8635 22.1992C65.6378 22.0296 66.216 23.0338 66.3238 24.6021C65.4547 24.6757 63.8072 24.6358 62.875 24.6442C63.2174 25.6674 63.9671 26.3214 65.0487 25.813C65.2293 25.7038 65.4449 25.5138 65.6127 25.3757L66.107 25.8415C64.2249 27.7656 61.421 25.903 62.3624 23.422C62.5994 22.798 63.082 22.4695 63.6786 22.223Z" fill="#7E7E7E"/>
<path d="M64.0202 22.8327C65.0399 22.7919 65.2421 23.1174 65.5973 23.9894L64.5653 23.9996L62.9 23.9911C63.186 23.3171 63.2914 23.0756 64.0202 22.8327Z" fill="white"/>
<path d="M39.9309 20.1411C41.206 20.1289 41.7667 20.4865 42.6721 21.3599L42.0792 21.8281C41.3274 21.0678 40.4329 20.6566 39.3649 21.0142C38.8135 21.1957 38.3593 21.5931 38.1061 22.1157C37.7678 22.8117 37.7213 23.6141 37.9768 24.3447C38.4755 25.7748 39.8308 26.1374 41.166 25.6561C41.5537 25.4465 41.773 25.2822 42.051 24.9487L42.6811 25.4042C40.8896 27.534 37.3029 26.7513 37.0381 23.8449C36.8596 21.8847 37.907 20.3259 39.9309 20.1411Z" fill="#7E7E7E"/>
<path d="M80.2831 22.2049C80.6542 22.1758 80.9347 22.1143 81.2207 22.4099C81.6158 22.8178 81.922 23.3437 82.2527 23.8143C82.5951 23.2913 83.0275 22.7416 83.3938 22.1892L84.2775 22.1958C83.7398 22.8797 83.1941 23.6482 82.6747 24.3519C83.1978 25.0794 83.7569 25.8334 84.2622 26.5701C84.0019 26.5832 83.7159 26.5793 83.4532 26.5814C83.0771 26.0812 82.6178 25.4983 82.2785 24.9847C81.8669 25.4712 81.4235 26.0856 81.0364 26.5995L80.2463 26.5853C80.7436 25.8526 81.3102 25.0988 81.8326 24.3791C81.3457 23.6525 80.7363 22.9516 80.2831 22.2049Z" fill="#7E7E7E"/>
<path d="M58.2135 19.9539C58.6324 19.9317 59.4953 19.906 59.6625 20.3792C59.6148 20.5725 59.556 20.6125 59.4102 20.7517C59.0623 20.8226 58.9166 20.613 58.6318 20.6094C58.0046 20.6012 58.1118 21.8002 58.1155 22.1899C58.6495 22.1853 59.0164 22.1036 59.4286 22.4447C59.42 22.9554 58.4878 22.8572 58.1167 22.8511L58.1185 26.5819L57.3873 26.5957C57.3652 25.4363 57.4332 24.2646 57.3683 23.1056C57.3425 22.6526 57.1833 22.9971 56.931 22.7538C56.8483 22.5405 56.8593 22.4853 56.8814 22.2541L56.9683 22.1864C58.0303 22.2304 56.6548 20.7475 58.2135 19.9539Z" fill="#7E7E7E"/>
<path d="M99.4459 20.6969C99.4674 20.6886 99.569 20.6889 99.599 20.6881C99.7222 20.8993 99.6701 21.8769 99.664 22.1899C100.144 22.1996 100.968 21.9883 101.131 22.5055C100.987 23.0441 100.17 22.8453 99.6603 22.8505C99.6554 23.5096 99.5017 25.5929 99.9861 25.9516C100.161 26.0067 100.646 25.8327 100.869 25.7746L100.964 25.8326C101.019 26.0097 101.09 26.1777 101.049 26.3568C100.989 26.4315 100.962 26.4503 100.877 26.4793C98.5272 27.2839 98.9204 24.875 98.9051 23.446C98.8972 22.701 98.9786 22.997 98.4733 22.7628C98.3668 22.609 98.3588 22.3457 98.469 22.1957C98.5928 22.1849 98.7165 22.1733 98.8396 22.1608C99.1574 21.6791 98.7036 21.2858 98.9382 20.8362C99.147 20.6739 99.1538 20.7191 99.4459 20.6969Z" fill="#7E7E7E"/>
<path d="M52.3991 20.6888C52.4628 20.6714 52.4849 20.6865 52.5553 20.7018C52.646 20.9234 52.6056 21.8798 52.6013 22.1907C53.0612 22.2024 53.621 22.0671 53.9609 22.3183C54.0448 22.5259 54.0301 22.4448 53.9897 22.6706C53.6841 22.9729 53.12 22.8452 52.6013 22.8507C52.5945 23.416 52.4616 25.5449 52.8187 25.8785C53.2045 26.0502 53.4924 25.8028 53.8513 25.7807L53.9083 25.8831C53.9389 25.9804 54.0626 26.343 53.9395 26.4104C53.5077 26.6476 52.6129 26.7495 52.2356 26.3512C51.6777 25.7625 51.9245 24.6232 51.8871 23.8828C51.9496 22.3771 51.7224 23.1272 51.301 22.6961C51.2581 22.4911 51.2777 22.4439 51.3377 22.2399C51.4749 22.1872 51.5833 22.1788 51.7267 22.1603C52.1585 21.8231 51.6844 21.4913 51.9233 20.8457C52.0984 20.6701 52.1058 20.7204 52.3991 20.6888Z" fill="#7E7E7E"/>
<path d="M95.6304 22.189C95.8325 22.1863 96.2061 22.1549 96.3691 22.241C96.3929 22.4233 96.3978 22.5647 96.4027 22.7486C96.5534 22.8157 97.0691 22.1966 97.3723 22.2149C97.5211 22.2239 97.7122 22.0839 97.9088 22.205C98.046 22.3993 98.0858 22.8248 97.8488 22.8992C96.9901 23.1693 96.3948 23.2018 96.393 24.3271L96.3942 26.5826L95.6194 26.5934C95.6121 25.1253 95.6157 23.6571 95.6304 22.189Z" fill="#7E7E7E"/>
<path d="M49.3036 22.9014C49.6607 22.5616 50.3148 21.9014 50.8237 22.2605C50.9658 22.4308 50.937 22.664 50.9395 22.8918C49.9828 22.9842 49.4886 23.1975 49.2901 24.2064C49.2577 24.9626 49.2785 25.8207 49.2815 26.5847C49.0402 26.5967 48.9502 26.6006 48.7132 26.5652C48.5337 26.3808 48.6195 22.698 48.6219 22.1872C48.8197 22.1805 49.0396 22.1515 49.2093 22.2437C49.3299 22.3985 49.3011 22.6924 49.3036 22.9014Z" fill="#7E7E7E"/>
<path d="M60.271 22.1889C60.4609 22.1852 60.8461 22.1541 60.9815 22.2773C61.077 23.0046 61.0066 25.6915 61.0029 26.5866L60.2735 26.5947L60.271 22.1889Z" fill="#7E7E7E"/>
<path d="M55.0691 22.1861C55.2859 22.1826 55.542 22.1589 55.7092 22.2785C55.8004 22.9394 55.7355 25.7959 55.733 26.584C55.5266 26.5918 55.248 26.6359 55.0991 26.5177C54.9779 26.0563 55.0673 22.8762 55.0691 22.1861Z" fill="#7E7E7E"/>
<path d="M55.2664 20.3968C55.5346 20.3192 55.8158 20.4697 55.8997 20.7359C55.9836 21.0021 55.8396 21.2866 55.5757 21.3768C55.3993 21.4371 55.2039 21.397 55.0655 21.2721C54.9271 21.1472 54.867 20.9571 54.9087 20.7753C54.9503 20.5936 55.0875 20.4487 55.2664 20.3968Z" fill="#7E7E7E"/>
<path d="M60.5254 20.402C60.7937 20.3395 61.0632 20.5023 61.1324 20.7691C61.2022 21.0358 61.0472 21.3096 60.7821 21.3864C60.6044 21.4381 60.4127 21.3891 60.2817 21.2586C60.1506 21.1281 60.1004 20.9365 60.1512 20.7585C60.202 20.5805 60.3448 20.4439 60.5254 20.402Z" fill="#7E7E7E"/>
</svg>
