<svg width="19" height="19" viewBox="0 0 19 19" fill="none" xmlns="http://www.w3.org/2000/svg">
<path d="M8.74318 0.0138354C13.8421 -0.263025 18.1994 3.64868 18.4746 8.74991C18.7498 13.8511 14.8384 18.2093 9.7394 18.483C4.64258 18.7566 0.288712 14.8456 0.0136716 9.74657C-0.261366 4.64758 3.64652 0.290576 8.74318 0.0138354Z" fill="#4480F8"/>
<path d="M8.03961 3.49013L11.8267 3.48905C12.3748 3.48899 13.3903 3.46089 13.903 3.51493C13.5543 4.2163 11.1207 7.05635 11.0412 7.44678C11.2172 7.68063 13.7541 7.40966 14.1947 7.58488L14.2108 7.62684C14.1592 7.82874 12.7334 9.15501 12.5017 9.38279L8.86537 12.9605C8.51179 13.3157 5.87182 15.9578 5.61384 16.0832L5.56016 16.0488C5.49869 15.8811 5.77848 14.9387 5.83437 14.7059L6.48425 12.0038C6.57562 11.6297 6.75261 10.9894 6.79505 10.6247C6.35795 10.6084 4.45332 10.6605 4.18905 10.5711L4.16334 10.5118C4.19377 10.2213 7.66968 4.15924 8.03961 3.49013Z" fill="white"/>
</svg>
