                  <svg width="146" height="141" viewBox="0 0 146 141" fill="none" xmlns="http://www.w3.org/2000/svg">
                    <g opacity="0.1" filter="url(#filter0_f_4715_9332)">
                      <path
                        d="M10.0248 20.3434C17.0189 87.2173 9.55655 109.578 8.92277 131.948L21.7672 130.421L10.0248 20.3434Z"
                        fill="black" />
                    </g>
                    <g opacity="0.3" filter="url(#filter1_f_4715_9332)">
                      <path d="M16.6163 34.2095L21.1833 129.273L28.5828 128.543L16.6163 34.2095Z" fill="black" />
                    </g>
                    <g filter="url(#filter2_d_4715_9332)">
                      <path
                        d="M128.654 3.09186C118.499 4.18121 48.2076 12.1162 14.3313 15.9476C14.2338 23.1733 22.8305 95.7999 27.141 131.21C39.8765 129.696 108.79 121.402 141.655 117.445C140.011 106.642 132.303 36.7082 128.654 3.09186Z"
                        fill="#FBD767" />
                    </g>
                    <path opacity="0.02"
                      d="M128.659 3.12051C118.489 4.30627 48.2803 11.95 14.3357 15.9472C14.7311 22.1092 15.4707 29.5943 16.4427 39.0273C29.2109 37.509 98.0587 29.3564 131.012 25.4278C130.371 18.7728 129.311 9.85694 128.659 3.12051Z"
                      fill="#222222" />
                    <path
                      d="M43.9037 73.0317C43.3182 73.196 42.837 73.192 42.4603 73.0197C42.107 72.8409 41.8679 72.529 41.7431 72.084C41.6249 71.6624 41.6256 71.1696 41.7453 70.6055C41.865 70.0414 42.0999 69.4828 42.4501 68.9299C42.5578 68.7734 42.6552 68.6702 42.7423 68.6205C42.8126 68.6008 42.8777 68.6078 42.9377 68.6415C42.9677 68.6584 42.9925 68.702 43.0122 68.7722C43.0582 68.9362 43.0054 69.1531 42.8537 69.423C42.3884 70.2862 42.2214 70.9519 42.3528 71.4204C42.4251 71.678 42.6079 71.8794 42.9012 72.0245C43.1945 72.1696 43.4901 72.1877 43.788 72.0789C44.946 71.7036 46.0799 71.1077 47.1899 70.2911C48.2998 69.4745 49.2785 68.5053 50.126 67.3834C50.9669 66.238 51.5876 65.0282 51.988 63.7537C52.2931 62.8597 52.3668 62.1317 52.2091 61.5696C52.0055 60.8435 51.4353 60.6118 50.4984 60.8746C50.3345 60.9206 50.1537 60.9966 49.956 61.1025C49.7518 61.1851 49.5274 61.2859 49.2829 61.405L47.6347 62.2841C46.2914 62.9893 45.1022 63.6133 44.0671 64.1563C43.0254 64.6758 42.0713 65.0571 41.2047 65.3001C40.1976 65.5826 39.3703 65.6504 38.7228 65.5036C38.0921 65.3268 37.6684 64.8519 37.4516 64.079C37.3531 63.7277 37.3051 63.2864 37.3077 62.7552C37.3426 61.078 38.1358 59.0871 39.6874 56.7824C40.7408 55.2238 41.9943 53.748 43.4478 52.355C44.8948 50.9387 46.4094 49.7181 47.9915 48.6933C49.5904 47.6385 51.1511 46.8976 52.6734 46.4707C53.8445 46.1422 54.8419 46.1404 55.6656 46.4651C56.5128 46.7833 57.0612 47.3875 57.3108 48.2775C57.5407 49.0972 57.4943 50.0576 57.1715 51.1587C57.0732 51.4389 56.9655 51.5954 56.8484 51.6282C56.8016 51.6414 56.7449 51.6194 56.6783 51.5623C56.6052 51.4817 56.5555 51.3946 56.5293 51.3009C56.5227 51.2775 56.5128 51.2424 56.4997 51.1955C56.5034 51.1187 56.5038 51.0301 56.501 50.9299C56.5307 50.3152 56.4733 49.7503 56.3288 49.235C56.1054 48.4387 55.6569 47.9203 54.9831 47.6797C54.3327 47.4327 53.5054 47.5005 52.5012 47.8832C50.7503 48.5764 48.8502 49.7283 46.8008 51.3388C45.4155 52.4348 44.145 53.6248 42.9894 54.9089C41.8571 56.1865 40.9287 57.4701 40.204 58.7596C39.4962 60.0192 39.0962 61.2051 39.0039 62.3173C38.9628 62.531 38.9783 62.7666 39.0506 63.0243C39.3133 63.9611 40.3699 64.1701 42.2201 63.6511C43.1101 63.4015 44.0559 63.0352 45.0573 62.5522C46.0821 62.0627 47.2577 61.4803 48.5842 60.8052L49.7448 60.2144C50.1467 60.0259 50.5467 59.8758 50.9449 59.7641C51.6943 59.5539 52.3343 59.5386 52.8647 59.7183C53.3951 59.898 53.7358 60.2571 53.8869 60.7958C54.0249 61.2877 53.9783 61.9323 53.7472 62.7298C53.5264 63.4738 53.2288 64.2142 52.8543 64.9508C52.4733 65.664 52.0304 66.3819 51.5257 67.1045C50.4928 68.5563 49.3039 69.8119 47.9589 70.8712C46.6139 71.9306 45.2621 72.6507 43.9037 73.0317ZM54.1154 78.6942C53.8812 78.7599 53.7107 78.7824 53.6038 78.7618C53.5139 78.7113 53.4206 78.649 53.3241 78.575C53.2275 78.5011 53.1694 78.4289 53.1497 78.3587C52.9141 77.3384 52.9084 76.1021 53.1326 74.6497C53.3569 73.1973 53.7521 71.6338 54.3182 69.9592C54.8609 68.2912 55.4903 66.662 56.2064 65.0717C56.8383 63.6313 57.2594 62.5658 57.4699 61.8752C57.6299 61.2745 57.771 60.4265 57.8933 59.3311C58.0324 58.2058 58.156 56.8448 58.264 55.2481C58.2714 55.0945 58.4208 54.9515 58.7121 54.8193C59.0869 54.7142 59.3531 54.9427 59.5107 55.5048C59.5961 55.8093 59.6234 56.0416 59.5925 56.2019C59.6019 56.3255 59.5997 56.4525 59.5857 56.5827C59.5885 56.683 59.5848 56.7598 59.5745 56.8132C59.5437 56.9735 59.5348 57.077 59.5479 57.1239C59.5479 57.1239 59.5695 57.1557 59.6126 57.2194C59.6558 57.2831 59.7055 57.3702 59.7617 57.4807C60.4295 56.8892 61.0266 56.406 61.553 56.031C62.0729 55.6325 62.6022 55.3578 63.1408 55.2067C63.7732 55.0293 64.2656 55.1186 64.6181 55.4745C64.7278 55.5953 64.8122 55.7611 64.8713 55.9719C65.0158 56.4872 65.0006 57.1988 64.8258 58.1068C64.6444 58.9914 64.3558 59.9439 63.9599 60.9644C63.5809 61.955 63.1203 62.88 62.5781 63.7394C62.3862 64.0459 62.0837 64.4086 61.6707 64.8276C61.2811 65.24 60.8381 65.6422 60.3417 66.034C59.8752 66.4428 59.4074 66.8013 58.9381 67.1098C58.4922 67.4117 58.1288 67.6021 57.8477 67.6809C57.7206 68.3987 57.5869 69.093 57.4467 69.7639C57.313 70.4583 57.161 71.1325 56.9908 71.7866C56.2406 74.877 55.4279 77.1134 54.5524 78.4958C54.5187 78.5558 54.373 78.6219 54.1154 78.6942ZM58.1618 65.9633C59.21 65.4672 60.2464 64.6586 61.271 63.5376C62.2955 62.4165 63.0666 61.2023 63.5842 59.8951C64.1018 58.5878 64.1743 57.4053 63.8019 56.3476C63.5431 55.9654 63.1912 55.8368 62.7462 55.9616C62.4418 56.047 62.0849 56.2608 61.6756 56.6029C61.2897 56.9385 60.9085 57.336 60.5321 57.7952C60.1556 58.2545 59.826 58.7006 59.5432 59.1336C59.2838 59.5601 59.1167 59.9101 59.0419 60.1837C58.9708 60.3805 58.9124 60.7127 58.8667 61.1803C58.8255 61.3939 58.8012 61.5776 58.7938 61.7312C58.7864 61.8849 58.7775 61.9884 58.7672 62.0418C58.7355 62.3792 58.6903 62.7582 58.6314 63.1789C58.566 63.5762 58.4954 64.0002 58.4197 64.4509L58.1618 65.9633ZM53.9556 76.5031C53.9819 76.5968 54.0185 76.6371 54.0653 76.624C54.1824 76.5911 54.3439 76.3563 54.5499 75.9196C54.8972 75.2664 55.1406 74.6929 55.28 74.1991C55.5382 73.3182 55.773 72.4439 55.9844 71.5762C56.1723 70.715 56.3486 69.8572 56.5131 69.0026C56.8656 67.2869 56.9373 66.2815 56.7282 65.9864C56.4755 66.4363 56.2068 67.0548 55.9223 67.8419C55.621 68.6591 55.3393 69.5465 55.0774 70.5042C54.792 71.4685 54.5502 72.4079 54.352 73.3225C54.1369 74.267 54.0009 75.0883 53.9441 75.7864C53.9386 76.2174 53.9425 76.4563 53.9556 76.5031ZM68.0808 64.2424C67.589 64.3804 67.1196 64.3731 66.6726 64.2205C65.9322 63.9229 65.4307 63.3057 65.1679 62.3688C64.9052 61.432 64.9539 60.3446 65.3141 59.1067C65.6743 57.8688 66.3971 56.6177 67.4825 55.3532C67.6707 55.1236 67.9639 54.9529 68.3621 54.8413C68.8773 54.6968 69.3735 54.7092 69.8504 54.8786C70.3509 55.0414 70.6166 55.3584 70.6477 55.8297C70.6874 56.6018 70.505 57.3477 70.1006 58.0674C69.7196 58.7806 69.2167 59.4648 68.592 60.12C67.9842 60.7452 67.3497 61.3653 66.6885 61.9803C66.6847 62.0571 66.681 62.1339 66.6773 62.2107C66.697 62.281 66.7167 62.3513 66.7364 62.4215C66.8284 62.7494 67.0159 63.0126 67.299 63.2112C67.5989 63.3797 67.9479 63.4081 68.346 63.2964C68.6505 63.211 68.895 63.0919 69.0795 62.9391C69.4149 62.6935 69.6832 62.4793 69.8846 62.2965C70.1094 62.1071 70.3529 61.8494 70.6151 61.5232C70.8773 61.197 71.2238 60.7209 71.6545 60.0948C71.8596 59.8352 71.9855 59.6988 72.0324 59.6857C72.1729 59.6462 72.2493 59.7385 72.2616 59.9624C72.1325 60.4029 71.8376 60.9277 71.3768 61.5369C70.9395 62.1396 70.4155 62.7034 69.8049 63.2283C69.2176 63.7467 68.6429 64.0848 68.0808 64.2424ZM66.6332 60.9726C66.8206 60.92 67.1545 60.6243 67.6349 60.0853C68.1153 59.5463 68.5508 58.9821 68.9412 58.3926C69.6013 57.3232 69.869 56.566 69.7442 56.121C69.7113 56.0039 69.6466 55.9084 69.5501 55.8344C69.447 55.737 69.3252 55.708 69.1846 55.7474C68.7396 55.8722 68.138 56.6094 67.3796 57.959C66.8506 58.8652 66.6018 59.8698 66.6332 60.9726ZM73.2679 62.9771C72.8463 63.0953 72.5895 62.9905 72.4975 62.6626C72.4384 62.4518 72.4331 62.1628 72.4817 61.7955C72.5537 61.4216 72.629 61.0594 72.7075 60.709C72.9292 59.7878 73.1223 58.9 73.2868 58.0454C73.4513 57.1908 73.591 56.2927 73.7059 55.351C73.7647 54.9303 73.9581 54.6739 74.286 54.5819C74.6373 54.4834 74.8018 54.6646 74.7795 55.1256C74.7375 55.5164 74.6857 55.872 74.624 56.1924C74.3426 57.7114 74.2676 58.7051 74.399 59.1735C74.4581 59.3843 74.5645 59.4934 74.7182 59.5008C74.9738 59.1512 75.1672 58.8949 75.2983 58.7318C75.4228 58.5453 75.4935 58.437 75.5104 58.407C75.766 58.0574 76.0469 57.6629 76.3531 57.2233C76.6762 56.7537 77.0212 56.2275 77.3883 55.6445C77.9641 54.7251 78.5096 54.1932 79.0249 54.0486C79.6573 53.8713 80.0876 54.3696 80.3158 55.5435C80.4171 55.995 80.5387 56.4283 80.6803 56.8434C80.73 56.9305 80.7811 57.0677 80.8337 57.2551C80.8797 57.419 80.9355 57.6181 81.0012 57.8523C81.0669 58.0865 81.2403 58.1642 81.5213 58.0854C81.8492 57.9934 82.1274 57.8144 82.3559 57.5482L82.981 56.8044L83.616 56.0958C83.6563 56.0592 83.7349 56.0245 83.852 55.9917C83.9926 55.9523 84.0221 56.0577 83.9407 56.3079C82.9776 58.5486 82.0158 59.8036 81.0556 60.0729C80.8682 60.1255 80.671 60.1429 80.4639 60.1252C80.2802 60.1009 80.1073 59.9346 79.9451 59.6264C79.7763 59.2948 79.6243 58.9332 79.4892 58.5416C79.3776 58.1435 79.2922 57.839 79.2331 57.6282L78.943 56.459C78.8051 55.9672 78.6073 55.7574 78.3497 55.8296C77.7407 56.0004 76.5932 57.6739 74.9071 60.85C74.7854 61.1367 74.5813 61.535 74.2948 62.0449C74.0083 62.5547 73.666 62.8654 73.2679 62.9771ZM86.6184 59.3843C86.0563 59.542 85.5737 59.4878 85.1707 59.2219C84.7977 58.9728 84.5357 58.579 84.3846 58.0403C84.1152 57.08 84.2038 56.0446 84.6503 54.9341C85.0087 54.0504 85.4455 53.2205 85.9605 52.4445C86.4923 51.6385 87.0369 50.9679 87.5941 50.4326C88.1682 49.8674 88.6895 49.5191 89.1579 49.3877C89.6029 49.2629 89.9483 49.3681 90.1939 49.7035C90.3401 49.8646 90.4494 50.0739 90.5216 50.3316C90.653 50.8 90.543 51.0835 90.1917 51.182C90.0278 51.228 89.8558 51.2004 89.6759 51.0993C89.5128 50.9682 89.3918 50.7621 89.313 50.4811C89.0225 50.4362 88.6876 50.5933 88.3083 50.9523C87.9459 51.2813 87.5895 51.7223 87.2393 52.2753C86.8826 52.8048 86.5591 53.3629 86.2689 53.9496C85.9721 54.5128 85.7526 54.9913 85.6104 55.3848C85.353 56.0886 85.3229 56.7918 85.5199 57.4945C85.6119 57.8224 85.7694 58.0687 85.9925 58.2335C86.2156 58.3983 86.491 58.4348 86.8189 58.3428C87.1234 58.2574 87.4602 58.0619 87.8292 57.7563C88.0877 57.5069 88.326 57.2759 88.5443 57.0631C88.7859 56.8437 89.0074 56.6427 89.2088 56.4599C90.431 55.2328 91.1358 54.5931 91.3231 54.5405C91.3934 54.5208 91.4384 54.5461 91.4581 54.6164C91.4778 54.6866 91.4455 54.7967 91.3613 54.9467C91.1862 55.2232 90.8935 55.621 90.4834 56.1403C90.0732 56.6595 89.6213 57.1652 89.1278 57.6573C88.6342 58.1495 88.1645 58.5465 87.7186 58.8484C87.313 59.1137 86.9463 59.2923 86.6184 59.3843ZM95.0473 56.6792C94.5554 56.8172 94.086 56.8099 93.639 56.6574C92.8987 56.3597 92.3971 55.7425 92.1344 54.8056C91.8716 53.8688 91.9204 52.7814 92.2805 51.5435C92.6407 50.3056 93.3635 49.0545 94.4489 47.7901C94.6372 47.5604 94.9304 47.3898 95.3285 47.2781C95.8438 47.1336 96.3399 47.146 96.8169 47.3154C97.3173 47.4782 97.5831 47.7953 97.6142 48.2665C97.6539 49.0386 97.4715 49.7845 97.067 50.5042C96.686 51.2174 96.1832 51.9016 95.5585 52.5568C94.9507 53.1821 94.3161 53.8021 93.6549 54.4171C93.6512 54.4939 93.6475 54.5707 93.6438 54.6476C93.6635 54.7178 93.6832 54.7881 93.7029 54.8584C93.7949 55.1863 93.9824 55.4495 94.2654 55.648C94.5653 55.8165 94.9143 55.8449 95.3125 55.7333C95.617 55.6479 95.8615 55.5288 96.046 55.376C96.3813 55.1303 96.6497 54.9161 96.851 54.7333C97.0758 54.544 97.3193 54.2862 97.5815 53.96C97.8437 53.6338 98.1902 53.1577 98.6209 52.5316C98.826 52.272 98.952 52.1356 98.9988 52.1225C99.1394 52.0831 99.2158 52.1753 99.228 52.3993C99.0989 52.8397 98.804 53.3645 98.3433 53.9737C97.906 54.5764 97.382 55.1402 96.7713 55.6652C96.1841 56.1836 95.6094 56.5216 95.0473 56.6792ZM93.5997 53.4094C93.787 53.3568 94.1209 53.0611 94.6014 52.5221C95.0818 51.9832 95.5172 51.4189 95.9077 50.8294C96.5678 49.76 96.8354 49.0029 96.7106 48.5579C96.6778 48.4407 96.6131 48.3452 96.5166 48.2712C96.4134 48.1738 96.2916 48.1448 96.1511 48.1842C95.7061 48.3091 95.1044 49.0462 94.3461 50.3958C93.8171 51.3021 93.5683 52.3066 93.5997 53.4094ZM100.108 55.6389C99.8034 55.7242 99.5757 55.4976 99.4246 54.9589C99.2998 54.5139 99.2836 54.0511 99.3762 53.5704C99.6259 52.3887 99.832 51.232 99.9945 50.1C100.128 49.4057 100.245 48.7413 100.345 48.107C100.468 47.466 100.582 46.8785 100.684 46.3444C100.785 46.1645 100.906 46.0548 101.047 46.0154C101.351 45.93 101.484 46.0442 101.446 46.3581C101.445 46.5352 101.431 46.754 101.403 47.0145C101.392 47.245 101.37 47.5289 101.339 47.8662C101.24 48.955 101.211 49.7083 101.252 50.1262C101.744 49.3567 102.26 48.6308 102.802 47.9485C103.36 47.2362 103.897 46.6307 104.414 46.132C104.931 45.6333 105.401 45.3248 105.822 45.2066C106.197 45.1015 106.427 45.2012 106.512 45.5056C106.585 45.7633 106.546 46.0772 106.398 46.4473C106.242 46.7941 106.047 47.0003 105.813 47.066C105.696 47.0988 105.592 47.09 105.503 47.0394C105.426 47.0357 105.282 47.0634 105.071 47.1225C104.322 47.3327 103.639 47.9158 103.023 48.8718C102.36 49.8409 101.821 50.9392 101.408 52.1668C100.988 53.371 100.719 54.3938 100.601 55.2353C100.483 55.4452 100.319 55.5797 100.108 55.6389ZM60.2656 105.179C60.0314 105.245 59.8881 105.184 59.8355 104.997C59.7632 104.739 59.9013 104.511 60.2498 104.312C61.3289 103.656 62.3489 102.789 63.3097 101.711C64.2772 100.656 65.1565 99.5128 65.9477 98.2803C66.7389 97.0479 67.4046 95.8633 67.9447 94.7265C68.0664 94.4397 68.2386 94.063 68.4614 93.5963C68.6776 93.1062 68.9294 92.5177 69.2168 91.8307C68.6969 92.2292 68.1972 92.6093 67.7177 92.9712C67.2615 93.3265 66.8405 93.672 66.4546 94.0076C66.4378 94.0376 66.3825 94.0657 66.2888 94.092C66.078 94.1511 65.9365 94.0518 65.8642 93.7942C65.792 93.5366 65.7867 93.2475 65.8484 92.927C65.927 92.5766 66.0552 92.3132 66.2332 92.137C66.8335 91.6655 67.4522 91.214 68.0892 90.7828C68.743 90.3215 69.4183 89.8921 70.1153 89.4945C70.7619 87.7468 71.2564 86.0418 71.5986 84.3794C71.9342 82.6937 72.1321 80.8319 72.1921 78.7939C72.1984 78.1859 72.1556 77.7179 72.0636 77.39C71.8074 76.4765 71.1209 76.1006 70.0041 76.2623C69.5694 76.3337 69.0237 76.5499 68.3671 76.9109C67.7104 77.2719 67.0065 77.7346 66.2553 78.299C65.4975 78.8399 64.7613 79.4127 64.0467 80.0174C63.3554 80.6155 62.7612 81.199 62.2639 81.7679C61.1251 83.0221 60.1025 84.4205 59.1962 85.9631C58.3068 87.4758 57.6735 88.866 57.2965 90.1339C56.97 91.3118 56.8888 92.1935 57.0531 92.7791C57.3092 93.6925 58.058 93.9751 59.2993 93.627C60.6343 93.2525 61.8751 92.6772 63.0216 91.9009C64.1915 91.118 65.1577 90.3291 65.92 89.5343C66.1954 89.2549 66.4501 89.0824 66.6844 89.0167C66.8483 88.9707 66.9401 88.9829 66.9598 89.0532C66.9561 89.13 66.877 89.2532 66.7225 89.4229C65.6342 90.5871 64.5014 91.6374 63.3241 92.574C62.1401 93.4871 60.8573 94.1374 59.4754 94.525C58.4214 94.8206 57.5843 94.8533 56.9639 94.623C56.337 94.3694 55.9283 93.903 55.7378 93.2237C55.5276 92.4743 55.5469 91.5973 55.7956 90.5927C56.021 89.5948 56.3921 88.5307 56.9088 87.4005C57.4489 86.2637 58.101 85.1208 58.8651 83.9717C59.6292 82.8227 60.4813 81.7626 61.4216 80.7915C62.7618 79.3546 64.1194 78.1149 65.4944 77.0724C66.8928 76.0233 68.3767 75.2787 69.9459 74.8386C70.7891 74.6021 71.4838 74.6473 72.0302 74.974C72.57 75.2774 72.9483 75.8155 73.1651 76.5884C73.3162 77.1271 73.3816 77.7656 73.3613 78.5039C73.3338 80.0274 73.2656 81.3603 73.1564 82.5025C73.0641 83.6147 72.9137 84.6548 72.7052 85.6228C72.5135 86.5608 72.238 87.5602 71.8787 88.621C72.5288 88.2365 73.1335 87.9154 73.6927 87.6574C74.2754 87.393 74.8965 87.1303 75.556 86.8696C76.2089 86.5854 76.9907 86.2651 77.9013 85.9087C78.0821 85.8327 78.3331 85.737 78.6545 85.6216C78.9758 85.5062 79.3524 85.3627 79.7843 85.1911C80.439 82.4811 81.0784 80.167 81.7025 78.2487C82.35 76.3239 82.9589 74.8016 83.529 73.6817C83.6301 73.5017 83.8212 73.3723 84.1023 73.2935C84.4536 73.195 84.8078 73.1967 85.1648 73.2987C85.5152 73.3772 85.7233 73.5336 85.789 73.7678C85.8153 73.8615 85.7947 73.9683 85.7273 74.0883C84.9295 75.2973 84.0916 76.8587 83.2136 78.7723C82.359 80.6794 81.599 82.6989 80.9338 84.8308L81.8121 84.5844C81.9057 84.5582 81.9793 84.5502 82.0327 84.5605C82.103 84.5407 82.1648 84.536 82.2182 84.5463C82.295 84.55 82.3433 84.587 82.363 84.6573C82.409 84.8212 82.283 84.9576 81.9851 85.0664C81.6872 85.1753 81.2755 85.3286 80.7499 85.5265C80.3729 86.7944 80.0844 88.0627 79.8844 89.3315C79.6779 90.5768 79.5416 91.8024 79.4756 93.0083C79.4656 93.6932 79.5099 94.2113 79.6084 94.5626C79.8449 95.4058 80.3693 95.7893 81.1816 95.713C81.4224 95.6708 81.5789 95.7784 81.6512 96.0361C81.7234 96.2937 81.6954 96.5542 81.5672 96.8175C81.4389 97.0809 81.2511 97.222 81.0038 97.2408C79.8504 97.3622 79.1095 96.8373 78.7811 95.6663C78.6037 95.0339 78.5373 94.2567 78.5819 93.3347C78.6171 92.2891 78.7178 91.1619 78.884 89.9531C79.0671 88.7144 79.3158 87.3941 79.63 85.9922C78.1602 86.6066 76.7752 87.2982 75.475 88.0671C74.1683 88.8125 72.6986 89.7426 71.0659 90.8574C70.9171 91.2275 70.7364 91.6193 70.5239 92.0326C70.3283 92.4159 70.0956 92.8474 69.826 93.3273C69.2727 94.4172 68.9876 94.9772 68.9708 95.0072C68.4241 96.1205 67.7116 97.3182 66.8333 98.6004C65.9784 99.876 65.0035 101.084 63.9087 102.225C62.8439 103.383 61.7082 104.333 60.5017 105.075C60.4614 105.112 60.3828 105.146 60.2656 105.179ZM84.2846 85.2552C83.9801 85.3406 83.8081 85.313 83.7687 85.1725C83.7359 85.0554 83.7719 84.8685 83.8767 84.6117C83.9984 84.3249 84.1533 84.0667 84.3416 83.8371C84.7649 83.3647 85.0842 82.972 85.2996 82.6589C85.5384 82.3393 85.7897 81.8393 86.0537 81.159C86.0902 81.1993 86.1282 81.2897 86.1676 81.4302C86.253 81.7347 86.2293 82.1455 86.0965 82.6628C85.9805 83.1501 85.8195 83.6121 85.6136 84.0488C85.4077 84.4855 85.2007 84.7835 84.9928 84.9429C84.8017 85.0723 84.5656 85.1764 84.2846 85.2552ZM83.5719 94.7395C83.3845 94.792 83.1892 94.771 82.9858 94.6765C82.7824 94.5819 82.6479 94.4176 82.5822 94.1833C82.4443 93.6915 82.531 92.6945 82.8423 91.1924L83.012 90.3112C83.0457 90.2512 83.0714 90.1176 83.0891 89.9106C83.1303 89.6969 83.1901 89.4149 83.2687 89.0644C83.3407 88.6905 83.3874 88.3616 83.4088 88.0777C83.4302 87.7938 83.4315 87.5282 83.4127 87.2808C83.4061 87.2574 83.4398 87.1974 83.5138 87.1009C83.5878 87.0044 83.665 86.9195 83.7456 86.8464L83.9465 86.7522C84.1339 86.6996 84.296 86.692 84.4328 86.7295C84.593 86.7603 84.6661 86.8409 84.6521 86.9711C84.5867 87.3684 84.5316 87.7123 84.4867 88.0028C84.4419 88.2933 84.4106 88.542 84.3929 88.7491L84.3578 88.759C84.2643 89.4168 84.1995 90.0413 84.1632 90.6325C84.1438 91.1938 84.2115 91.7053 84.3663 92.1672L84.6674 93.1059C84.7097 93.3467 84.6836 93.5687 84.589 93.7721C84.515 93.8686 84.4092 93.9867 84.2715 94.1264C84.1404 94.2895 83.9625 94.4657 83.7377 94.6551C83.7208 94.6851 83.6656 94.7132 83.5719 94.7395ZM86.8733 93.6241C86.5688 93.7094 86.3411 93.4828 86.19 92.9441C86.0652 92.4991 86.049 92.0363 86.1416 91.5556C86.3913 90.3739 86.5974 89.2172 86.7599 88.0852C86.8936 87.3909 87.0104 86.7265 87.1104 86.0922C87.2338 85.4512 87.3469 84.8637 87.4498 84.3296C87.5509 84.1497 87.6717 84.04 87.8122 84.0006C88.1167 83.9152 88.2498 84.0294 88.2115 84.3433C88.2107 84.5204 88.1962 84.7392 88.1682 84.9997C88.1571 85.2302 88.1357 85.5141 88.1039 85.8514C88.0051 86.9402 87.9764 87.6935 88.0178 88.1114C88.5094 87.3419 89.0258 86.616 89.5671 85.9337C90.1252 85.2214 90.6627 84.6159 91.1797 84.1172C91.6967 83.6185 92.166 83.31 92.5876 83.1918C92.9623 83.0867 93.1924 83.1864 93.2778 83.4908C93.35 83.7485 93.3118 84.0624 93.1629 84.4325C93.0075 84.7793 92.8128 84.9855 92.5785 85.0512C92.4614 85.084 92.3579 85.0752 92.2679 85.0246C92.1911 85.0209 92.0473 85.0486 91.8365 85.1077C91.087 85.3179 90.4042 85.901 89.7881 86.857C89.1252 87.8261 88.5869 88.9244 88.1733 90.152C87.7531 91.3562 87.4842 92.379 87.3665 93.2205C87.2485 93.4304 87.0841 93.5649 86.8733 93.6241ZM93.0971 92.6743C92.7224 92.7794 92.3846 92.8362 92.0839 92.8448C91.8065 92.8468 91.6514 92.7892 91.6186 92.6721C91.566 92.4847 91.7239 92.3268 92.092 92.1983C92.4368 92.0763 92.6611 91.9755 92.7651 91.8958C92.9628 91.7899 93.1988 91.6858 93.4733 91.5835C93.7178 91.4644 93.9187 91.3702 94.0761 91.3007C95.1084 90.6575 95.5293 89.9963 95.3388 89.3171C95.2074 88.8487 94.794 88.3204 94.0985 87.7323C93.6692 87.3727 93.379 86.9236 93.2279 86.3849C93.044 85.7291 93.0624 85.0292 93.2832 84.2851C93.5275 83.5345 93.8884 82.8396 94.3659 82.2004C94.8604 81.5312 95.4008 81.0259 95.9872 80.6846C96.2485 80.5355 96.5314 80.4183 96.8359 80.3329C97.3277 80.1949 97.7119 80.2135 97.9884 80.3886C98.1683 80.4897 98.324 80.7745 98.4554 81.2429C98.5539 81.5942 98.5972 81.9737 98.5852 82.3812C98.5666 82.7654 98.4847 83.1042 98.3396 83.3975C98.2554 83.5474 98.1781 83.6323 98.1078 83.652C97.9907 83.6848 97.8862 83.5373 97.7942 83.2094L97.6323 82.4969C97.6032 82.303 97.5689 82.1357 97.5295 81.9952C97.5135 81.8481 97.4924 81.7277 97.4661 81.634C97.3544 81.2359 97.2068 81.0247 97.0231 81.0004C96.8226 81.0061 96.6872 81.0188 96.6169 81.0385C96.1251 81.1764 95.6605 81.5467 95.2232 82.1494C94.7859 82.7521 94.4737 83.3954 94.2866 84.0795C94.2052 84.3297 94.2072 84.607 94.2926 84.9115C94.3977 85.2862 94.6162 85.705 94.9481 86.1677C95.2968 86.6004 95.5509 86.9207 95.7103 87.1287C96.089 87.5783 96.3895 87.974 96.6117 88.3159C96.8573 88.6512 97.0195 88.9594 97.0983 89.2405C97.1378 89.381 97.1556 89.4897 97.1519 89.5665C97.2559 89.4868 97.5172 89.3377 97.9359 89.1192C98.3078 88.9139 98.6343 88.7718 98.9153 88.693C99.0793 88.647 99.1711 88.6591 99.1908 88.7294C99.1974 88.7528 99.1501 88.8545 99.049 89.0344C98.9985 89.1244 98.8088 89.3039 98.48 89.573C98.1681 89.812 97.7893 90.0825 97.3434 90.3844C96.9209 90.6797 96.4952 90.9633 96.0662 91.2352C95.6372 91.5071 95.2686 91.7242 94.9604 91.8864C94.4443 92.208 93.8232 92.4707 93.0971 92.6743ZM101.623 92.2157C101.506 92.2485 101.418 92.1596 101.359 91.9488C101.346 91.9019 101.326 91.8317 101.3 91.738C101.303 91.6611 101.304 91.5726 101.301 91.4723L101.748 87.2544L102.298 82.3253C102.01 82.3807 101.604 82.5074 101.078 82.7053C100.546 82.8798 100.102 83.0547 99.7472 83.2301C99.6133 83.2929 99.5027 83.3492 99.4156 83.3989C99.3453 83.4186 99.2868 83.435 99.24 83.4481C99.0526 83.5007 98.9008 83.4549 98.7845 83.3106C98.7685 83.1635 98.8612 82.9986 99.0626 82.8158C99.1666 82.7361 99.2972 82.6615 99.4546 82.5921C99.6054 82.4993 99.7914 82.3966 100.012 82.2841C100.257 82.165 100.47 82.0675 100.65 81.9915C100.855 81.909 101 81.8428 101.087 81.7931C101.198 81.7369 101.308 81.6806 101.419 81.6243C101.53 81.5681 101.664 81.5052 101.821 81.4358C101.955 81.373 102.101 81.3069 102.258 81.2375C102.415 81.1681 102.581 81.0837 102.755 80.9843C102.87 80.6741 103.023 80.1386 103.214 79.3777C103.405 78.6168 103.642 77.6155 103.925 76.3739C104.151 75.376 104.335 74.5916 104.478 74.021C104.638 73.4203 104.754 73.0216 104.825 72.8248C104.957 72.4846 105.163 72.2751 105.444 72.1963C105.585 72.1569 105.672 72.1957 105.704 72.3128C105.711 72.3362 105.695 72.5049 105.657 72.8188C105.582 73.0924 105.469 73.5914 105.319 74.3157C105.168 75.0401 105.011 75.8295 104.846 76.6841C104.682 77.5387 104.539 78.3366 104.419 79.0778C104.298 79.819 104.222 80.3582 104.19 80.6956C104.301 80.6393 104.426 80.5914 104.567 80.552C104.731 80.5061 104.93 80.4502 105.164 80.3845C105.422 80.3123 105.659 80.2583 105.876 80.2226C106.111 80.1569 106.313 80.1128 106.484 80.0902C106.831 80.0685 107.021 80.1162 107.054 80.2333C107.067 80.2802 106.985 80.3917 106.807 80.5679C106.703 80.6476 106.494 80.7569 106.179 80.8957C105.864 81.0345 105.444 81.2028 104.918 81.4008C104.778 81.4402 104.629 81.4946 104.472 81.564C104.308 81.61 104.135 81.671 103.954 81.7469C103.574 83.0916 103.149 85.2698 102.68 88.2814C102.484 89.2962 102.339 90.0824 102.242 90.6399C102.146 91.1975 102.088 91.5296 102.067 91.6365C101.935 91.9766 101.787 92.1697 101.623 92.2157Z"
                      fill="black" />
                    <defs>
                      <filter id="filter0_f_4715_9332" x="0.00120926" y="11.4226" width="30.6851" height="129.446"
                        filterUnits="userSpaceOnUse" color-interpolation-filters="sRGB">
                        <feFlood flood-opacity="0" result="BackgroundImageFix" />
                        <feBlend mode="normal" in="SourceGraphic" in2="BackgroundImageFix" result="shape" />
                        <feGaussianBlur stdDeviation="4.46033" result="effect1_foregroundBlur_4715_9332" />
                      </filter>
                      <filter id="filter1_f_4715_9332" x="10.6701" y="28.2624" width="23.8591" height="106.957"
                        filterUnits="userSpaceOnUse" color-interpolation-filters="sRGB">
                        <feFlood flood-opacity="0" result="BackgroundImageFix" />
                        <feBlend mode="normal" in="SourceGraphic" in2="BackgroundImageFix" result="shape" />
                        <feGaussianBlur stdDeviation="2.97356" result="effect1_foregroundBlur_4715_9332" />
                      </filter>
                      <filter id="filter2_d_4715_9332" x="12.5479" y="3.0918" width="130.298" height="131.092"
                        filterUnits="userSpaceOnUse" color-interpolation-filters="sRGB">
                        <feFlood flood-opacity="0" result="BackgroundImageFix" />
                        <feColorMatrix in="SourceAlpha" type="matrix" values="0 0 0 0 0 0 0 0 0 0 0 0 0 0 0 0 0 0 127 0"
                          result="hardAlpha" />
                        <feOffset dx="-0.297356" dy="1.48678" />
                        <feGaussianBlur stdDeviation="0.743389" />
                        <feComposite in2="hardAlpha" operator="out" />
                        <feColorMatrix type="matrix" values="0 0 0 0 0 0 0 0 0 0 0 0 0 0 0 0 0 0 0.3 0" />
                        <feBlend mode="normal" in2="BackgroundImageFix" result="effect1_dropShadow_4715_9332" />
                        <feBlend mode="normal" in="SourceGraphic" in2="effect1_dropShadow_4715_9332" result="shape" />
                      </filter>
                    </defs>
                  </svg>
