<svg width="187" height="32" viewBox="0 0 187 32" fill="none" xmlns="http://www.w3.org/2000/svg">
<g clip-path="url(#clip0_5582_47337)">
<path fill-rule="evenodd" clip-rule="evenodd" d="M28.9611 25.0831H23.2706C23.177 28.7769 20.1977 31.7542 16.5042 31.8492L16.3248 31.8515L4.3608 31.8515C2.35788 31.8515 0.734375 30.2279 0.734375 28.225L0.734375 20.6652L0.734375 17.9546L0.734375 10.3948L0.735551 10.3012C0.784374 8.37271 2.33847 6.81831 4.26727 6.76951L4.3608 6.76833L10.049 6.76833C10.0754 5.71774 10.3354 4.72513 10.779 3.84031C11.4984 2.40396 12.7013 1.25168 14.1742 0.596604C14.5889 0.412287 15.0248 0.267333 15.4771 0.166488C15.9095 0.0700742 16.3571 0.0139795 16.8159 0.00235291L16.9953 0L28.9611 0L29.0546 0.00117646C29.3411 0.00843912 29.6199 0.0489869 29.8864 0.119101C31.3269 0.498183 32.4169 1.74154 32.5693 3.26135C32.581 3.38141 32.5875 3.50319 32.5875 3.62642V11.1863V13.8968V21.4567L32.5863 21.5503C32.5369 23.4787 30.9828 25.0331 29.0546 25.082L28.9611 25.0831ZM2.84258 10.3948C2.84258 9.55628 3.52258 8.87654 4.3608 8.87654H10.3178H12.5542H16.3248C18.07 8.87654 19.6 9.80063 20.4512 11.1863H16.9953L16.8159 11.1886C16.2454 11.2031 15.6924 11.2863 15.1642 11.4302C14.3266 11.6585 13.5519 12.0395 12.8719 12.5416C11.2031 13.7737 10.1054 15.7348 10.049 17.9546L2.84258 17.9546L2.84258 10.3948ZM16.3248 6.76837L16.5042 6.77068C19.37 6.84383 21.8065 8.65316 22.7976 11.1863H30.4793V3.62642C30.4787 2.78794 29.7993 2.10823 28.9611 2.1082L16.9953 2.1082C14.3824 2.1082 12.2531 4.1786 12.1584 6.76833L16.3248 6.76837ZM15.1642 13.6529C15.7289 13.4219 16.3471 13.2945 16.9953 13.2945H21.1465H23.26H30.4793V13.8968V21.4567C30.4787 22.2952 29.7993 22.9749 28.9611 22.9749H23.0017C22.5729 21.4883 21.6618 20.2063 20.4482 19.31C19.7683 18.8079 18.9936 18.4268 18.1559 18.1985C17.7548 18.0892 17.3389 18.0149 16.9124 17.9792L16.7601 17.9681L16.7024 17.9648L16.5818 17.9594L16.5042 17.957L16.3248 17.9547L12.1584 17.9547C12.2295 16.0071 13.4513 14.3534 15.1642 13.6529ZM10.3178 20.0628H12.5542L16.3248 20.0628C16.973 20.0628 17.5912 20.1902 18.1559 20.4213C19.3236 20.899 20.263 21.8199 20.7653 22.9749C21.0224 23.5657 21.1647 24.2177 21.1647 24.9031C21.1647 24.9634 21.1635 25.0234 21.1612 25.0831C21.0665 27.6729 18.9377 29.7433 16.3248 29.7433L4.3608 29.7433C3.52258 29.7433 2.84258 29.0636 2.84258 28.2251L2.84258 20.6652V20.0628H10.3178Z" fill="white"/>
<path d="M41.1431 22.9258L46.5625 7.89561H49.0181L54.4374 22.9258H52.4475L50.9445 18.6496H44.6361L43.133 22.9258H41.1431ZM45.25 16.8714H50.3306L47.7903 9.4833L45.25 16.8714ZM60.1402 23.1798C59.0959 23.1798 58.1856 22.9399 57.4094 22.4601C56.6473 21.9802 56.0546 21.3028 55.6312 20.4278C55.2078 19.5387 54.9961 18.5014 54.9961 17.3159C54.9961 16.1304 55.2078 15.1002 55.6312 14.2252C56.0546 13.3502 56.6473 12.6728 57.4094 12.193C58.1856 11.699 59.0959 11.452 60.1402 11.452C61.0011 11.452 61.7632 11.6073 62.4265 11.9178C63.1039 12.2141 63.6543 12.6516 64.0777 13.2303C64.5011 13.8089 64.7763 14.5145 64.9033 15.3472L63.0404 15.4742C62.9134 14.7262 62.5888 14.1547 62.0666 13.7595C61.5445 13.3502 60.9023 13.1456 60.1402 13.1456C59.11 13.1456 58.3056 13.5196 57.7269 14.2676C57.1483 15.0014 56.859 16.0175 56.859 17.3159C56.859 18.6143 57.1483 19.6375 57.7269 20.3855C58.3056 21.1193 59.11 21.4863 60.1402 21.4863C60.9023 21.4863 61.5445 21.2746 62.0666 20.8512C62.5888 20.4278 62.9134 19.7927 63.0404 18.946L64.9033 19.073C64.7763 19.9056 64.5011 20.6324 64.0777 21.2534C63.6543 21.8603 63.1039 22.333 62.4265 22.6718C61.7632 23.0105 61.0011 23.1798 60.1402 23.1798ZM71.0664 23.1798C70.022 23.1798 69.1118 22.9399 68.3355 22.4601C67.5735 21.9802 66.9807 21.3028 66.5573 20.4278C66.1339 19.5387 65.9223 18.5014 65.9223 17.3159C65.9223 16.1304 66.1339 15.1002 66.5573 14.2252C66.9807 13.3502 67.5735 12.6728 68.3355 12.193C69.1118 11.699 70.022 11.452 71.0664 11.452C71.9273 11.452 72.6894 11.6073 73.3527 11.9178C74.0301 12.2141 74.5805 12.6516 75.0039 13.2303C75.4272 13.8089 75.7024 14.5145 75.8295 15.3472L73.9666 15.4742C73.8396 14.7262 73.515 14.1547 72.9928 13.7595C72.4706 13.3502 71.8285 13.1456 71.0664 13.1456C70.0361 13.1456 69.2317 13.5196 68.6531 14.2676C68.0745 15.0014 67.7851 16.0175 67.7851 17.3159C67.7851 18.6143 68.0745 19.6375 68.6531 20.3855C69.2317 21.1193 70.0361 21.4863 71.0664 21.4863C71.8285 21.4863 72.4706 21.2746 72.9928 20.8512C73.515 20.4278 73.8396 19.7927 73.9666 18.946L75.8295 19.073C75.7024 19.9056 75.4272 20.6324 75.0039 21.2534C74.5805 21.8603 74.0301 22.333 73.3527 22.6718C72.6894 23.0105 71.9273 23.1798 71.0664 23.1798ZM81.9925 23.1798C80.9341 23.1798 80.0167 22.9399 79.2405 22.4601C78.4784 21.9802 77.8857 21.3028 77.4623 20.4278C77.053 19.5387 76.8484 18.5014 76.8484 17.3159C76.8484 16.1304 77.053 15.1002 77.4623 14.2252C77.8857 13.3502 78.4714 12.6728 79.2194 12.193C79.9815 11.699 80.8776 11.452 81.9079 11.452C82.8816 11.452 83.7425 11.6849 84.4905 12.1506C85.2385 12.6022 85.8171 13.2655 86.2264 14.1405C86.6498 15.0155 86.8615 16.0811 86.8615 17.3371V17.8663H78.7113C78.7819 19.0659 79.0994 19.9691 79.6639 20.576C80.2425 21.1828 81.0187 21.4863 81.9925 21.4863C82.7264 21.4863 83.3262 21.3169 83.7919 20.9782C84.2718 20.6254 84.6034 20.1667 84.7869 19.6022L86.6921 19.7504C86.3957 20.7524 85.8312 21.578 84.9986 22.2272C84.18 22.8623 83.178 23.1798 81.9925 23.1798ZM78.7113 16.2998H84.9139C84.8292 15.2131 84.5117 14.4157 83.9613 13.9077C83.425 13.3996 82.7405 13.1456 81.9079 13.1456C81.047 13.1456 80.3343 13.4137 79.7698 13.95C79.2194 14.4722 78.8665 15.2555 78.7113 16.2998ZM91.1517 22.9258C90.5025 22.9258 89.9733 22.7564 89.564 22.4177C89.1547 22.079 88.9501 21.5427 88.9501 20.8089V7.89561H90.7283V20.6607C90.7283 20.8865 90.7848 21.0629 90.8977 21.1899C91.0247 21.3028 91.2011 21.3593 91.4269 21.3593H92.4007V22.9258H91.1517ZM98.4285 23.1798C97.37 23.1798 96.4527 22.9399 95.6765 22.4601C94.9144 21.9802 94.3216 21.3028 93.8983 20.4278C93.489 19.5387 93.2843 18.5014 93.2843 17.3159C93.2843 16.1304 93.489 15.1002 93.8983 14.2252C94.3216 13.3502 94.9073 12.6728 95.6553 12.193C96.4174 11.699 97.3136 11.452 98.3438 11.452C99.3176 11.452 100.178 11.6849 100.926 12.1506C101.674 12.6022 102.253 13.2655 102.662 14.1405C103.086 15.0155 103.297 16.0811 103.297 17.3371V17.8663H95.1472C95.2178 19.0659 95.5353 19.9691 96.0999 20.576C96.6785 21.1828 97.4547 21.4863 98.4285 21.4863C99.1623 21.4863 99.7621 21.3169 100.228 20.9782C100.708 20.6254 101.039 20.1667 101.223 19.6022L103.128 19.7504C102.832 20.7524 102.267 21.578 101.435 22.2272C100.616 22.8623 99.614 23.1798 98.4285 23.1798ZM95.1472 16.2998H101.35C101.265 15.2131 100.948 14.4157 100.397 13.9077C99.8609 13.3996 99.1765 13.1456 98.3438 13.1456C97.4829 13.1456 96.7702 13.4137 96.2057 13.95C95.6553 14.4722 95.3025 15.2555 95.1472 16.2998ZM105.283 22.9258V11.7061H106.849L106.934 14.5428L106.765 14.4792C106.906 13.5196 107.209 12.821 107.675 12.3835C108.155 11.9319 108.79 11.7061 109.58 11.7061H110.681V13.3996H109.601C109.037 13.3996 108.564 13.5055 108.183 13.7172C107.816 13.9147 107.534 14.2182 107.336 14.6274C107.153 15.0226 107.061 15.5307 107.061 16.1516V22.9258H105.283ZM115.06 23.1798C113.903 23.1798 112.978 22.9117 112.287 22.3754C111.609 21.8391 111.271 21.0911 111.271 20.1314C111.271 19.1718 111.553 18.4167 112.118 17.8663C112.682 17.3159 113.578 16.9278 114.806 16.702L118.786 15.9611C118.786 15.0155 118.56 14.3099 118.108 13.8442C117.671 13.3784 117.008 13.1456 116.119 13.1456C115.342 13.1456 114.728 13.322 114.277 13.6748C113.825 14.0135 113.515 14.5075 113.345 15.1567L111.461 15.0085C111.673 13.95 112.181 13.0962 112.985 12.447C113.804 11.7837 114.848 11.452 116.119 11.452C117.558 11.452 118.659 11.8613 119.421 12.6799C120.183 13.4843 120.564 14.5992 120.564 16.0246V20.6607C120.564 20.9147 120.606 21.0982 120.691 21.2111C120.79 21.3099 120.945 21.3593 121.157 21.3593H121.601V22.9258C121.545 22.9399 121.453 22.947 121.326 22.947C121.199 22.9611 121.065 22.9681 120.924 22.9681C120.416 22.9681 120 22.8905 119.675 22.7353C119.364 22.5659 119.139 22.3119 118.998 21.9732C118.856 21.6203 118.786 21.1617 118.786 20.5972L118.998 20.6395C118.899 21.1193 118.659 21.5568 118.278 21.952C117.897 22.333 117.424 22.6365 116.859 22.8623C116.295 23.074 115.695 23.1798 115.06 23.1798ZM115.229 21.6133C115.977 21.6133 116.612 21.4722 117.135 21.1899C117.671 20.8935 118.08 20.4984 118.362 20.0044C118.645 19.4964 118.786 18.9318 118.786 18.3109V17.5065L115.145 18.1839C114.383 18.325 113.853 18.5437 113.557 18.8401C113.275 19.1224 113.134 19.4964 113.134 19.9621C113.134 20.4843 113.317 20.8935 113.684 21.1899C114.065 21.4722 114.58 21.6133 115.229 21.6133ZM126.735 22.9258C125.719 22.9258 124.964 22.6929 124.47 22.2272C123.99 21.7615 123.75 21.0347 123.75 20.0468V9.08108H125.528V20.0044C125.528 20.5125 125.641 20.8653 125.867 21.0629C126.093 21.2605 126.439 21.3593 126.904 21.3593H128.513V22.9258H126.735ZM122.099 13.2726V11.7061H128.513V13.2726H122.099ZM134.546 23.1798C133.488 23.1798 132.57 22.9399 131.794 22.4601C131.032 21.9802 130.439 21.3028 130.016 20.4278C129.607 19.5387 129.402 18.5014 129.402 17.3159C129.402 16.1304 129.607 15.1002 130.016 14.2252C130.439 13.3502 131.025 12.6728 131.773 12.193C132.535 11.699 133.431 11.452 134.461 11.452C135.435 11.452 136.296 11.6849 137.044 12.1506C137.792 12.6022 138.371 13.2655 138.78 14.1405C139.203 15.0155 139.415 16.0811 139.415 17.3371V17.8663H131.265C131.335 19.0659 131.653 19.9691 132.217 20.576C132.796 21.1828 133.572 21.4863 134.546 21.4863C135.28 21.4863 135.88 21.3169 136.345 20.9782C136.825 20.6254 137.157 20.1667 137.34 19.6022L139.246 19.7504C138.949 20.7524 138.385 21.578 137.552 22.2272C136.734 22.8623 135.732 23.1798 134.546 23.1798ZM131.265 16.2998H137.467C137.383 15.2131 137.065 14.4157 136.515 13.9077C135.978 13.3996 135.294 13.1456 134.461 13.1456C133.6 13.1456 132.888 13.4137 132.323 13.95C131.773 14.4722 131.42 15.2555 131.265 16.2998ZM146.73 22.9258V7.89561H151.895C153.673 7.89561 155.007 8.2202 155.896 8.86939C156.785 9.51858 157.23 10.5418 157.23 11.9389C157.23 12.5881 157.089 13.1597 156.807 13.6536C156.524 14.1476 156.122 14.5357 155.6 14.818C155.078 15.0861 154.457 15.2202 153.737 15.2202L153.716 15.0932C155 15.0932 156.009 15.4389 156.743 16.1304C157.491 16.8079 157.865 17.697 157.865 18.7978C157.865 20.1667 157.42 21.197 156.531 21.8885C155.642 22.58 154.379 22.9258 152.742 22.9258H146.73ZM148.55 21.1476H152.742C153.772 21.1476 154.563 20.9359 155.113 20.5125C155.677 20.0891 155.96 19.4822 155.96 18.6919C155.96 17.9016 155.677 17.2877 155.113 16.8502C154.563 16.3986 153.772 16.1728 152.742 16.1728H148.55V21.1476ZM148.55 14.3946H151.895C152.996 14.3946 153.843 14.1899 154.436 13.7807C155.028 13.3573 155.325 12.7716 155.325 12.0236C155.325 11.2333 155.035 10.6476 154.457 10.2666C153.892 9.8714 153.038 9.67382 151.895 9.67382H148.55V14.3946ZM160.018 22.9258C160.018 21.8673 160.18 20.9147 160.505 20.0679C160.843 19.207 161.429 18.3885 162.262 17.6123C163.108 16.8361 164.28 16.0528 165.776 15.2625C166.467 14.8956 167.025 14.5569 167.448 14.2464C167.871 13.9359 168.182 13.6043 168.379 13.2514C168.577 12.8986 168.676 12.4682 168.676 11.9601C168.676 11.4379 168.563 10.9863 168.337 10.6053C168.111 10.2101 167.773 9.89963 167.321 9.67382C166.884 9.44802 166.333 9.33512 165.67 9.33512C164.611 9.33512 163.772 9.61032 163.151 10.1607C162.544 10.7111 162.163 11.4944 162.008 12.5105L160.102 12.3835C160.272 10.9158 160.836 9.74439 161.796 8.86939C162.756 7.9944 164.047 7.5569 165.67 7.5569C166.7 7.5569 167.582 7.74036 168.316 8.1073C169.05 8.47423 169.607 8.98935 169.988 9.65265C170.384 10.3018 170.581 11.0569 170.581 11.9178C170.581 12.6799 170.454 13.3432 170.2 13.9077C169.946 14.4581 169.516 14.9732 168.909 15.453C168.316 15.9329 167.497 16.448 166.453 16.9984C165.098 17.7181 164.068 18.445 163.362 19.1788C162.671 19.9127 162.304 20.5689 162.262 21.1476H170.581V22.9258H160.018ZM173.378 22.9258V7.89561H178.544C180.322 7.89561 181.656 8.2202 182.545 8.86939C183.434 9.51858 183.878 10.5418 183.878 11.9389C183.878 12.5881 183.737 13.1597 183.455 13.6536C183.173 14.1476 182.771 14.5357 182.248 14.818C181.726 15.0861 181.105 15.2202 180.385 15.2202L180.364 15.0932C181.649 15.0932 182.658 15.4389 183.391 16.1304C184.139 16.8079 184.513 17.697 184.513 18.7978C184.513 20.1667 184.069 21.197 183.18 21.8885C182.291 22.58 181.028 22.9258 179.39 22.9258H173.378ZM175.199 21.1476H179.39C180.421 21.1476 181.211 20.9359 181.761 20.5125C182.326 20.0891 182.608 19.4822 182.608 18.6919C182.608 17.9016 182.326 17.2877 181.761 16.8502C181.211 16.3986 180.421 16.1728 179.39 16.1728H175.199V21.1476ZM175.199 14.3946H178.544C179.645 14.3946 180.491 14.1899 181.084 13.7807C181.677 13.3573 181.973 12.7716 181.973 12.0236C181.973 11.2333 181.684 10.6476 181.105 10.2666C180.541 9.8714 179.687 9.67382 178.544 9.67382H175.199V14.3946Z" fill="white"/>
</g>
<defs>
<clipPath id="clip0_5582_47337">
<rect width="187" height="31.8515" fill="white"/>
</clipPath>
</defs>
</svg>
