<svg width="70" height="70" viewBox="0 0 32.5875 31.8515" fill="none" xmlns="http://www.w3.org/2000/svg">
<path fill-rule="evenodd" clip-rule="evenodd" d="M28.9611 25.0831H23.2706C23.177 28.7769 20.1977 31.7542 16.5042 31.8492L16.3248 31.8515L4.3608 31.8515C2.35788 31.8515 0.734375 30.2279 0.734375 28.225L0.734375 20.6652L0.734375 17.9546L0.734375 10.3948L0.735551 10.3012C0.784374 8.37271 2.33847 6.81831 4.26727 6.76951L4.3608 6.76833L10.049 6.76833C10.0754 5.71774 10.3354 4.72513 10.779 3.84031C11.4984 2.40396 12.7013 1.25168 14.1742 0.596604C14.5889 0.412287 15.0248 0.267333 15.4771 0.166488C15.9095 0.0700742 16.3571 0.0139795 16.8159 0.00235291L16.9953 0L28.9611 0L29.0546 0.00117646C29.3411 0.00843912 29.6199 0.0489869 29.8864 0.119101C31.3269 0.498183 32.4169 1.74154 32.5693 3.26135C32.581 3.38141 32.5875 3.50319 32.5875 3.62642V11.1863V13.8968V21.4567L32.5863 21.5503C32.5369 23.4787 30.9828 25.0331 29.0546 25.082L28.9611 25.0831ZM2.84258 10.3948C2.84258 9.55628 3.52258 8.87654 4.3608 8.87654H10.3178H12.5542H16.3248C18.07 8.87654 19.6 9.80063 20.4512 11.1863H16.9953L16.8159 11.1886C16.2454 11.2031 15.6924 11.2863 15.1642 11.4302C14.3266 11.6585 13.5519 12.0395 12.8719 12.5416C11.2031 13.7737 10.1054 15.7348 10.049 17.9546L2.84258 17.9546L2.84258 10.3948ZM16.3248 6.76837L16.5042 6.77068C19.37 6.84383 21.8065 8.65316 22.7976 11.1863H30.4793V3.62642C30.4787 2.78794 29.7993 2.10823 28.9611 2.1082L16.9953 2.1082C14.3824 2.1082 12.2531 4.1786 12.1584 6.76833L16.3248 6.76837ZM15.1642 13.6529C15.7289 13.4219 16.3471 13.2945 16.9953 13.2945H21.1465H23.26H30.4793V13.8968V21.4567C30.4787 22.2952 29.7993 22.9749 28.9611 22.9749H23.0017C22.5729 21.4883 21.6618 20.2063 20.4482 19.31C19.7683 18.8079 18.9936 18.4268 18.1559 18.1985C17.7548 18.0892 17.3389 18.0149 16.9124 17.9792L16.7601 17.9681L16.7024 17.9648L16.5818 17.9594L16.5042 17.957L16.3248 17.9547L12.1584 17.9547C12.2295 16.0071 13.4513 14.3534 15.1642 13.6529ZM10.3178 20.0628H12.5542L16.3248 20.0628C16.973 20.0628 17.5912 20.1902 18.1559 20.4213C19.3236 20.899 20.263 21.8199 20.7653 22.9749C21.0224 23.5657 21.1647 24.2177 21.1647 24.9031C21.1647 24.9634 21.1635 25.0234 21.1612 25.0831C21.0665 27.6729 18.9377 29.7433 16.3248 29.7433L4.3608 29.7433C3.52258 29.7433 2.84258 29.0636 2.84258 28.2251L2.84258 20.6652V20.0628H10.3178Z" fill="white"/>
</svg>
